<svg xmlns="http://www.w3.org/2000/svg" viewBox="0 0 32 32" fill="none">
  <rect width="32" height="32" rx="6" fill="#0f172a"/>
  <g transform="translate(2.45 1.15) scale(0.0606)">
    <polygon points="105.5 445.12 105.48 446 0 446.1 0 .13 105.29 .15 105.5 445.12" fill="#94a3b8"/>
    <path d="M105.48,446l.02-.88c.68-.39,1.78-1.14,2.7-2.07l110.1-110.61,15.59-15.76,90.58-91.02c1.37-1.51,2.2-2.81,2.74-4.24,2.86-1.6,5.24-3.72,7.91-6.4l64.26-64.55c5.93,22.62,11.7,45.66,12.17,69.86.56,28.8-4.32,56-14.29,82.95-19.91,53.8-59.13,98.45-111.34,122.77-28.36,13.21-53.68,20.05-85.67,20.02l-94.77-.07Z" fill="#0ea5e9"/>
    <path d="M105.85.46l17.52-.46,77.95.27c51.09.17,98.81,21.03,136.61,54.53,8.01,7.1,15.23,14.59,21.99,22.86,12.65,15.47,32.54,46.44,37.36,64.8l2.1,8.02-64.26,64.55c-2.67,2.68-5.05,4.81-7.91,6.4-1-.77-1.92-1.56-3.31-2.95" fill="#6366f1"/>
  </g>
</svg>
